<svg xmlns="http://www.w3.org/2000/svg" width="295.337" height="165.27" viewBox="0 0 295.337 165.27"><defs><style>.a{fill:#fff;}</style></defs><g transform="translate(-508.482 -455.37)"><g transform="translate(508.482 455.37)"><path class="a" d="M543.57,455.37a35.127,35.127,0,0,0-35.088,35.086v84.093a35.127,35.127,0,0,0,35.088,35.086H643.734l-.1-.386-.1-.386-.026-.1-.1-.385-.1-.387h-98.01A33.888,33.888,0,0,1,511.5,574.072V490.93a33.888,33.888,0,0,1,33.781-33.921H800.8V574.072a33.888,33.888,0,0,1-33.778,33.921H686.87l-.118.387-.121.385-.03.1-.12.386-.121.386h82.371a35.126,35.126,0,0,0,35.088-35.086V455.37Z" transform="translate(-508.482 -455.37)"/><path class="a" d="M532.742,478.085a19.606,19.606,0,0,1,6.514-5.581,19.935,19.935,0,0,1,9.241-2.175,19.445,19.445,0,0,1,8.912,2.179,17.981,17.981,0,0,1,7.1,6.827l.158.26,1.886-.606-.234-.414a20.163,20.163,0,0,0-7.669-7.915,22.737,22.737,0,0,0-9.765-2.857c-.3,0-.59-.009-.883-.032-.318-.028-.632-.039-.947-.039a25.48,25.48,0,0,0-11.278,2.375,23.957,23.957,0,0,0-8.029,6.225,26.4,26.4,0,0,0-4.762,8.81,33.023,33.023,0,0,0-1.585,10.074,31.8,31.8,0,0,0,1.624,10.04A26.284,26.284,0,0,0,527.862,514a23.763,23.763,0,0,0,8.069,6.116,25.108,25.108,0,0,0,10.8,2.225l.4,0a27.559,27.559,0,0,0,8.941-1.628,20.115,20.115,0,0,0,7.582-4.9,2.77,2.77,0,0,0,.414-.473,1.813,1.813,0,0,0,.243-.277,1.779,1.779,0,0,1,.208-.231q.848-1.023,1.654-2.09a11.4,11.4,0,0,0,1.3-2.152l.036-16.739h-8.408v1.231l3.129,1.238v17.9a16.873,16.873,0,0,1-5.759,3.773,21.82,21.82,0,0,1-8.585,1.607,18.037,18.037,0,0,1-8.822-2.1,19.768,19.768,0,0,1-6.367-5.545,24.634,24.634,0,0,1-3.835-7.864,33.579,33.579,0,0,1-1.319-9.053,30.777,30.777,0,0,1,1.281-9.041A25.263,25.263,0,0,1,532.742,478.085Z" transform="translate(-504.425 -451.487)"/><path class="a" d="M569.73,478.11a3.286,3.286,0,0,0,0-4.639,3.186,3.186,0,0,0-2.273-.911,3.231,3.231,0,1,0,0,6.461A3.184,3.184,0,0,0,569.73,478.11Z" transform="translate(-490.972 -449.97)"/><path class="a" d="M562.507,481.582l2.991,1.169v34.406h4.929V480.275h-7.921Z" transform="translate(-491.512 -447.547)"/><path class="a" d="M585.761,487.2h10.358V485.33H585.761v-9.606a13.6,13.6,0,0,1,.636-4.4,8.206,8.206,0,0,1,1.706-2.963,6.8,6.8,0,0,1,2.451-1.693,8.935,8.935,0,0,1,6.992.357,9.209,9.209,0,0,1,3.432,2.661l.243.3,1.4-1.145-.246-.3a11.323,11.323,0,0,0-4.456-3.249,13.865,13.865,0,0,0-9.827-.411,10.174,10.174,0,0,0-3.753,2.275,11.3,11.3,0,0,0-2.607,3.965,15.363,15.363,0,0,0-.975,5.762v8.438H575V487.2h5.764v35.016h5Z" transform="translate(-487.589 -452.602)"/><path class="a" d="M595.479,484.791v1.866h5.18V512.24a11.418,11.418,0,0,0,2.351,7.544c1.58,1.883,3.984,2.839,7.15,2.839a14.443,14.443,0,0,0,3.714-.564,18.1,18.1,0,0,0,4.51-2.047l.373-.227-1.067-1.344-.293.187a11.862,11.862,0,0,1-6.286,2.13,5.206,5.206,0,0,1-3.473-1.149,5.46,5.46,0,0,1-1.492-2.285,10.484,10.484,0,0,1-.486-3.914V486.657h9.773v-1.866h-9.773V465.9h-7.922v1.225l2.92,1.241v16.426Z" transform="translate(-481.155 -452.063)"/><path class="a" d="M616.3,528.719a8.433,8.433,0,0,0,2.67-3.323,10.778,10.778,0,0,0,0-8.564,8.4,8.4,0,0,0-2.67-3.326,8.143,8.143,0,0,0-8.956,0,8.121,8.121,0,0,0-2.67,3.327,10.694,10.694,0,0,0-.888,4.276,10.2,10.2,0,0,0,.867,4.288,8.38,8.38,0,0,0,2.69,3.322,8.132,8.132,0,0,0,8.957,0Zm-9.253-3.84a10.731,10.731,0,0,1-.615-3.778,11.567,11.567,0,0,1,.633-3.79,7.072,7.072,0,0,1,1.823-2.853,4.079,4.079,0,0,1,2.924-1.095,4.179,4.179,0,0,1,2.945,1.1,6.832,6.832,0,0,1,1.817,2.849,11.924,11.924,0,0,1,.623,3.791,11,11,0,0,1-.6,3.782,7.078,7.078,0,0,1-1.827,2.853,4.16,4.16,0,0,1-2.955,1.095,4.085,4.085,0,0,1-2.925-1.1A7.3,7.3,0,0,1,607.049,524.879Z" transform="translate(-478.546 -437.53)"/><path class="a" d="M623.582,508.734a3.486,3.486,0,0,1,.721-1.256,2.9,2.9,0,0,1,1.028-.712,3.789,3.789,0,0,1,2.987.16,3.871,3.871,0,0,1,1.468,1.138l.244.3.959-.787-.244-.3a5.29,5.29,0,0,0-2.088-1.523,6.448,6.448,0,0,0-4.582-.189,4.735,4.735,0,0,0-1.765,1.071,5.257,5.257,0,0,0-1.227,1.855,7.194,7.194,0,0,0-.456,2.681v3.59h-2.594v1.264h2.594V531.81h2.68V516.031h4.667v-1.264h-4.667v-4.118A5.945,5.945,0,0,1,623.582,508.734Z" transform="translate(-474.071 -439.706)"/><path class="a" d="M590.967,572.465v-2.16h-29.89V515.594h-8.359v1.3l2.993,1.24v54.33Z" transform="translate(-494.587 -436.453)"/><path class="a" d="M616.163,544.965v-.385a14.361,14.361,0,0,0-1.317-6.263,13.576,13.576,0,0,0-3.53-4.582,15.993,15.993,0,0,0-5.05-2.8,18.021,18.021,0,0,0-5.815-.967,16.155,16.155,0,0,0-12.663,5.758,18.267,18.267,0,0,0-3.355,6.109,23.636,23.636,0,0,0-1.151,7.425,22.712,22.712,0,0,0,1.637,8.57,18.594,18.594,0,0,0,4.1,6.147,16.474,16.474,0,0,0,5.753,3.66,18.787,18.787,0,0,0,6.555,1.193,19.34,19.34,0,0,0,7.559-1.561,16.378,16.378,0,0,0,6.312-4.783l.243-.3-1.394-1.147-.244.293a14.316,14.316,0,0,1-5.01,3.913,13.366,13.366,0,0,1-11,.177,13.5,13.5,0,0,1-4.611-3.266,16.535,16.535,0,0,1-3.279-5.422,21.1,21.1,0,0,1-1.254-7.572,17.5,17.5,0,0,1,.363-4.2ZM591.01,539.22a15.851,15.851,0,0,1,2.779-3.67,12.581,12.581,0,0,1,3.682-2.514,10.964,10.964,0,0,1,4.514-.917,13.038,13.038,0,0,1,6.166,1.635,11.682,11.682,0,0,1,4.866,5.368,5.336,5.336,0,0,1,.629,2.983c-.113.658-.944.993-2.468.993H589.422A18.069,18.069,0,0,1,591.01,539.22Z" transform="translate(-484.986 -431.94)"/><path class="a" d="M666.947,542.918a7.513,7.513,0,0,1-2.326,2.435,14.03,14.03,0,0,1-3.411,1.631q-1.965.656-4.113,1.31c-1.457.445-2.886.915-4.246,1.393a21.655,21.655,0,0,0-3.975,1.857,9.021,9.021,0,0,0-3.767,4.155,9.506,9.506,0,0,0-.76,5.092,8.97,8.97,0,0,0,2.171,4.689,9.652,9.652,0,0,0,5.087,2.969,15.5,15.5,0,0,0,3.743.451,17.369,17.369,0,0,0,7.689-1.792,13.285,13.285,0,0,0,5.341-4.67l2.789,5.514h1.716V541a10.125,10.125,0,0,0-1.066-4.7,11.139,11.139,0,0,0-2.8-3.473,11.908,11.908,0,0,0-3.995-2.154,15.441,15.441,0,0,0-8.869-.108,12.79,12.79,0,0,0-3.948,1.879,14.364,14.364,0,0,0-3.225,3.184,13.018,13.018,0,0,0-2.108,4.552l-.1.4,1.924.353.091-.343a11.1,11.1,0,0,1,1.728-3.7,13.367,13.367,0,0,1,2.66-2.731,10.887,10.887,0,0,1,3.2-1.693,9.141,9.141,0,0,1,8.694,1.251,7.925,7.925,0,0,1,2.748,5.222l-.014.386A6.941,6.941,0,0,1,666.947,542.918Zm1.008,1.676v13.885a6.2,6.2,0,0,1-1.1,2.921,11.282,11.282,0,0,1-2.468,2.574,11.928,11.928,0,0,1-3.323,1.767,11.148,11.148,0,0,1-5.639.457,6.717,6.717,0,0,1-1.731-.586,6.575,6.575,0,0,1-2.586-2.209,8.113,8.113,0,0,1-1.325-3.207,8.829,8.829,0,0,1,.072-3.5,6.432,6.432,0,0,1,1.473-2.958,10.69,10.69,0,0,1,4.121-2.749c1.712-.643,3.4-1.242,5.021-1.781a26.924,26.924,0,0,0,4.778-2.109A8.042,8.042,0,0,0,667.955,544.594Z" transform="translate(-465.83 -431.939)"/><path class="a" d="M681.409,537.606a13.471,13.471,0,0,1,4.647-3.9,11.963,11.963,0,0,1,5.514-1.343,12.676,12.676,0,0,1,6.165,1.593,11.552,11.552,0,0,1,4.521,4.414l.248.434.356-.349a1.184,1.184,0,0,1,.409-.205.873.873,0,0,0,.559-.43l.067-.255-.093-.163a13.534,13.534,0,0,0-5.822-5.518,17.283,17.283,0,0,0-7.576-1.752,18.655,18.655,0,0,0-8.791,2.159,15.886,15.886,0,0,0-7.025,7.177,22.336,22.336,0,0,0,0,19.749,15.88,15.88,0,0,0,7.025,7.18,18.69,18.69,0,0,0,8.791,2.156,17.277,17.277,0,0,0,7.577-1.753,13.472,13.472,0,0,0,5.828-5.538l.084-.231-.064-.162a.884.884,0,0,0-.561-.434,1.207,1.207,0,0,1-.41-.205l-.355-.344-.247.431a11.573,11.573,0,0,1-4.521,4.412,12.68,12.68,0,0,1-6.165,1.6,11.941,11.941,0,0,1-5.509-1.342,14.447,14.447,0,0,1-4.654-3.945,17.314,17.314,0,0,1-2.82-5.464,21.087,21.087,0,0,1-.932-6.267,20.712,20.712,0,0,1,.932-6.234A17.768,17.768,0,0,1,681.409,537.606Z" transform="translate(-457.03 -431.887)"/><path class="a" d="M704.517,580.236l25.011-48.881.286-.561h-2.107L716.338,553.18l-11.656-22.386h-6.238V532.1l2.3.92,13.119,24.946-11.45,22.271Z" transform="translate(-448.813 -431.679)"/><path class="a" d="M650.436,574.24a12.386,12.386,0,0,0-4.444-3.612,22.584,22.584,0,0,0-5.787-1.857,62.153,62.153,0,0,0-6.387-.846q-3.215-.254-6.173-.439a31.019,31.019,0,0,1-5.071-.68c-1.585-.406-2.594-1.016-3-1.809a3.089,3.089,0,0,1-.229-2.446A6.082,6.082,0,0,1,623.1,558.9a20.374,20.374,0,0,0,3.857,1.214,23.124,23.124,0,0,0,4.715.443,19.913,19.913,0,0,0,8.927-1.829,15.224,15.224,0,0,0,5.683-4.64,13.725,13.725,0,0,0,1.731-12.844,14.764,14.764,0,0,0-9.129-8.7c.645-.092,1.3-.206,1.95-.339a29.032,29.032,0,0,0,3.735-1.038,16.845,16.845,0,0,0,3.247-1.532,8.53,8.53,0,0,0,2.4-2.135l.355-.47-2-.478-.151.131a15.009,15.009,0,0,1-3.769,2.419,22.987,22.987,0,0,1-4.273,1.436,31.352,31.352,0,0,1-4.431.686c-1.485.12-2.924.18-4.273.18a20.371,20.371,0,0,0-8.221,1.528,15.936,15.936,0,0,0-5.606,3.967,13.353,13.353,0,0,0-2.932,5.485,14.313,14.313,0,0,0-.258,6.071,13.613,13.613,0,0,0,2.4,5.667,14.245,14.245,0,0,0,4.4,3.961,9.894,9.894,0,0,0-3.434,2.536,8.426,8.426,0,0,0-1.983,3.863,6.028,6.028,0,0,0,.469,3.814,5.7,5.7,0,0,0,3.206,2.75,21.293,21.293,0,0,0,5.166,1.117c1.9.189,3.937.339,6.04.439,2.047.095,4.158.229,6.266.4a24.808,24.808,0,0,1,5.638,1.076,11.65,11.65,0,0,1,4.277,2.4,7.3,7.3,0,0,1,2.216,4.272,11.512,11.512,0,0,1-.451,6.816,12.579,12.579,0,0,1-3.5,4.748,16.808,16.808,0,0,1-5.105,2.886,21.675,21.675,0,0,1-5.342,1.222c-.482.045-.939.08-1.369.108s-.863.033-1.294.033a23.463,23.463,0,0,1-7.753-1.182,17.4,17.4,0,0,1-5.607-3.1,13.13,13.13,0,0,1-3.365-4.287,10.728,10.728,0,0,1-1.095-4.791,9.978,9.978,0,0,1,1.231-4.64,11,11,0,0,1,3.6-3.84l.33-.223-1.026-1.411-.3.181a11.3,11.3,0,0,0-5.2,6.343,11.991,11.991,0,0,0,.186,7.986A15.275,15.275,0,0,0,619,594.634c2.846,2.032,6.731,3.233,11.516,3.569a6.847,6.847,0,0,0,1.043.08h.986a24.151,24.151,0,0,0,9.159-1.6,19.106,19.106,0,0,0,6.44-4.174,15.593,15.593,0,0,0,3.666-5.8,15.23,15.23,0,0,0,.821-6.443A11.6,11.6,0,0,0,650.436,574.24ZM621.443,552.2a15.783,15.783,0,0,1,0-12.453,11.894,11.894,0,0,1,3.85-4.736,10.469,10.469,0,0,1,6.379-1.9,10.289,10.289,0,0,1,6.334,1.9,12.032,12.032,0,0,1,3.821,4.737,15.817,15.817,0,0,1,0,12.454,12.084,12.084,0,0,1-3.821,4.739,10.285,10.285,0,0,1-6.334,1.892,10.473,10.473,0,0,1-6.379-1.894A11.967,11.967,0,0,1,621.443,552.2Z" transform="translate(-475.819 -433.013)"/></g><g transform="translate(672.953 521.061)"><path class="a" d="M637.479,505.723l-.468-.364-.284.522c-.206.382-5.009,9.358-2.218,16.113,2.256,5.451,7.937,9.408,8.176,9.571l.548.379.22-.628C649.184,514.97,637.6,505.814,637.479,505.723Z" transform="translate(-633.639 -505.359)"/><path class="a" d="M657.773,516.939c-.23-.029-5.564-.669-9.734,2.384-3.93,2.877-5.925,8.351-6.011,8.581l-.183.527.537.137s.118.026.331.052c1.338.174,8.345.444,15.417-10.91l.42-.669Z" transform="translate(-631.062 -501.745)"/></g></g></svg>